<?xml version="1.0" encoding="utf-8"?>
<!-- Generator: Adobe Illustrator 25.4.1, SVG Export Plug-In . SVG Version: 6.00 Build 0)  -->
<svg version="1.1" id="beach_1_" xmlns:sketch="http://www.bohemiancoding.com/sketch/ns"
	 xmlns="http://www.w3.org/2000/svg" xmlns:xlink="http://www.w3.org/1999/xlink" x="0px" y="0px" viewBox="-5 11 100 100"
	 style="enable-background:new -5 11 100 100;" xml:space="preserve">
<style type="text/css">
	.st0{fill:#2284E6;}
	.st1{clip-path:url(#SVGID_00000114784060371668751910000016105124470711955635_);fill:#F2CEA5;}
	.st2{clip-path:url(#SVGID_00000114784060371668751910000016105124470711955635_);}
	.st3{clip-path:url(#SVGID_00000056427429034537685390000001526341063003193498_);fill:#F9E8D6;}
	.st4{clip-path:url(#SVGID_00000056427429034537685390000001526341063003193498_);fill:#CFB08D;}
	.st5{clip-path:url(#SVGID_00000056427429034537685390000001526341063003193498_);fill:#D4B08C;}
	.st6{clip-path:url(#SVGID_00000056427429034537685390000001526341063003193498_);fill:#B69778;}
	.st7{clip-path:url(#SVGID_00000114784060371668751910000016105124470711955635_);fill:#703741;}
	.st8{clip-path:url(#SVGID_00000049938506430916151680000000412902549119724426_);fill:#5C2D35;}
	.st9{clip-path:url(#SVGID_00000049938506430916151680000000412902549119724426_);fill:#452228;}
	.st10{clip-path:url(#SVGID_00000114784060371668751910000016105124470711955635_);fill:#6B940F;}
	.st11{clip-path:url(#SVGID_00000114784060371668751910000016105124470711955635_);fill:#70A619;}
	.st12{clip-path:url(#SVGID_00000114784060371668751910000016105124470711955635_);fill:#8EBF1D;}
	.st13{clip-path:url(#SVGID_00000114784060371668751910000016105124470711955635_);fill:#49A1FA;}
</style>
<circle class="st0" cx="45" cy="61" r="42.5"/>
<g>
	<defs>
		<circle id="SVGID_1_" cx="45" cy="61" r="42.5"/>
	</defs>
	<clipPath id="SVGID_00000163771272001016192190000009683672751423202456_">
		<use xlink:href="#SVGID_1_"  style="overflow:visible;"/>
	</clipPath>
	<path style="clip-path:url(#SVGID_00000163771272001016192190000009683672751423202456_);fill:#F2CEA5;" d="M11.4,91.9
		c0,0,3-3.3,3.2-6.7c0.2-3.5,2.7-6,4.7-7.5s5.2-4.5,5.6-7.6c0.4-3,2.9-7.3,11.6-9s5.8-3.8,16.7-4.3s15,2.8,22.4,2.6
		c7.4-0.2,10.2,1.7,14.5,6.1c4.3,4.4-0.8,33.9-30.4,41.6S11.4,91.9,11.4,91.9z"/>
	<g style="clip-path:url(#SVGID_00000163771272001016192190000009683672751423202456_);">
		<defs>
			<path id="SVGID_00000004532584174652772800000010435060271155647904_" d="M11.4,91.9c0,0,3-3.3,3.2-6.7c0.2-3.5,2.7-6,4.7-7.5
				s5.2-4.5,5.6-7.6c0.4-3,2.9-7.3,11.6-9s5.8-3.8,16.7-4.3s15,2.8,22.4,2.6c7.4-0.2,10.2,1.7,14.5,6.1c4.3,4.4-0.8,33.9-30.4,41.6
				S11.4,91.9,11.4,91.9z"/>
		</defs>
		<clipPath id="SVGID_00000107585276802642777540000009605071376600563079_">
			<use xlink:href="#SVGID_00000004532584174652772800000010435060271155647904_"  style="overflow:visible;"/>
		</clipPath>
		<path style="clip-path:url(#SVGID_00000107585276802642777540000009605071376600563079_);fill:#F9E8D6;" d="M10.3,93.3
			c0,0,7.1-0.3,9.5-7.6c1.8-5.3,6.9-2.4,10-7.5c3.1-5.1-0.1-5.7,3.9-11s17.5-0.4,19.7-7.1c2.2-6.6,5.1,7.3,14.1,7.5
			c9,0.3,10.4-6.9,21.2-1.2s9,10.2,9,10.2l4-28.2c0,0-72.5-12.8-96.8,39.7S10.3,93.3,10.3,93.3z"/>
		<path style="clip-path:url(#SVGID_00000107585276802642777540000009605071376600563079_);fill:#CFB08D;" d="M97.1,114.8
			c3-8.3-0.7-25.2-14-32.3c-1.9-1-11.1,1.3-13.1,0.6c-5.9-2.2-7.5,3.1-12.8,3.3c-8.8,0.3-15.4,1.6-17.6,7.5
			c-3.5,9.5,6.6,21.9,22.5,27.6C78,127.3,93.7,124.3,97.1,114.8z"/>
		<path style="clip-path:url(#SVGID_00000107585276802642777540000009605071376600563079_);fill:#D4B08C;" d="M33.5,98.4
			c1.2,0,2.1-1,2.1-2.1c0-1.2-1-2.1-2.1-2.1c-1.2,0-2.1,1-2.1,2.1C31.4,97.4,32.4,98.4,33.5,98.4z M25.9,89.1c0.7,0,1.3-0.6,1.3-1.3
			s-0.6-1.3-1.3-1.3s-1.3,0.6-1.3,1.3S25.2,89.1,25.9,89.1z M59.5,83.9c0.9,0,1.7-0.8,1.7-1.7s-0.8-1.7-1.7-1.7
			c-0.9,0-1.7,0.8-1.7,1.7S58.5,83.9,59.5,83.9z M40.3,79.7c0.7,0,1.3-0.6,1.3-1.3s-0.6-1.3-1.3-1.3S39,77.7,39,78.4
			S39.6,79.7,40.3,79.7z M82.8,73.8c0.7,0,1.3-0.6,1.3-1.3s-0.6-1.3-1.3-1.3c-0.7,0-1.3,0.6-1.3,1.3S82.1,73.8,82.8,73.8z"/>
		
			<circle style="clip-path:url(#SVGID_00000107585276802642777540000009605071376600563079_);fill:#B69778;" cx="45.4" cy="92.6" r="1.3"/>
		
			<circle style="clip-path:url(#SVGID_00000107585276802642777540000009605071376600563079_);fill:#B69778;" cx="55.6" cy="97.7" r="1.3"/>
	</g>
	<path style="clip-path:url(#SVGID_00000163771272001016192190000009683672751423202456_);fill:#703741;" d="M89.7,95.4
		c0,0-12.6-3.1-21.9-28s-5-3.4-5-3.4S59.7,76.7,70,96.5S89.7,95.4,89.7,95.4z"/>
	<g style="clip-path:url(#SVGID_00000163771272001016192190000009683672751423202456_);">
		<defs>
			<path id="SVGID_00000023256955744354933840000006306538501061149072_" d="M89.7,95.4c0,0-12.6-3.1-21.9-28s-5-3.4-5-3.4
				S59.7,76.7,70,96.5S89.7,95.4,89.7,95.4z"/>
		</defs>
		<clipPath id="SVGID_00000032644412488313077940000006522750297496673678_">
			<use xlink:href="#SVGID_00000023256955744354933840000006306538501061149072_"  style="overflow:visible;"/>
		</clipPath>
		<polygon style="clip-path:url(#SVGID_00000032644412488313077940000006522750297496673678_);fill:#5C2D35;" points="76.9,80.2 
			73.3,89 62,85.8 59.5,47.7 		"/>
		<polygon style="clip-path:url(#SVGID_00000032644412488313077940000006522750297496673678_);fill:#452228;" points="73.5,72.7 
			69.7,81.7 61,78.1 60.9,47.9 		"/>
	</g>
	
		<ellipse transform="matrix(6.975700e-02 -0.9976 0.9976 6.975700e-02 -13.4228 120.9218)" style="clip-path:url(#SVGID_00000163771272001016192190000009683672751423202456_);fill:#6B940F;" cx="58.1" cy="67.7" rx="5.5" ry="4.2"/>
	
		<ellipse transform="matrix(0.7771 -0.6293 0.6293 0.7771 -23.1333 58.7105)" style="clip-path:url(#SVGID_00000163771272001016192190000009683672751423202456_);fill:#6B940F;" cx="71.3" cy="62" rx="4.2" ry="5.5"/>
	
		<ellipse transform="matrix(0.9744 -0.225 0.225 0.9744 -13.1466 16.7052)" style="clip-path:url(#SVGID_00000163771272001016192190000009683672751423202456_);fill:#70A619;" cx="66.7" cy="66" rx="4.5" ry="5.9"/>
	<path style="clip-path:url(#SVGID_00000163771272001016192190000009683672751423202456_);fill:#8EBF1D;" d="M64.5,60.3
		c0,0-2.6,6.6-2.5,14.4c-2.9-3.2-3.7-7.7-4.5-10.3c-1.7,1.2-6.2,7.2-6.2,11.9c-2.3-2.4-4.3-9.5-0.6-15.9c-2-1.1-2.7-1.4-5.4-0.8
		c0.3-3.2,3.1-7,12-7c0.5-3.8,6.7-9.1,10.3-8.6c-1.7,2.8-1.1,5.2-1.1,5.2s9.4-2.2,14.1,3c-2.8,0-8,1.5-9.3,2.7
		c2.1,0.5,6.9,5.1,7.1,8.8C71.7,58.9,64.5,60.3,64.5,60.3z"/>
	<path style="clip-path:url(#SVGID_00000163771272001016192190000009683672751423202456_);fill:#8EBF1D;" d="M51.3,76.8
		c-0.1,0-0.2,0-0.3-0.1c-2.5-2.6-4.2-9.8-0.9-16c-1.8-0.9-2.3-1.1-4.8-0.6c-0.1,0-0.3,0-0.4-0.1c-0.1-0.1-0.2-0.2-0.1-0.4
		c0.2-2.2,1.9-7.3,12-7.4c0.8-4,6.9-9.1,10.7-8.6c0.1,0,0.3,0.1,0.3,0.2s0.1,0.3,0,0.4c-1.2,1.9-1.2,3.7-1.1,4.5
		c0.7-0.1,2.3-0.4,4.1-0.4c3,0,7.2,0.6,10,3.6C81,52,81,52.2,81,52.4c-0.1,0.2-0.2,0.3-0.4,0.3h0c-2.4,0-6.6,1.2-8.4,2.2
		c2.4,1.2,6.3,5.3,6.6,8.7c0,0,0,0.1,0,0.1c0,0.2-0.2,0.4-0.4,0.4c0,0,0,0,0,0c-0.1,0-0.2,0-0.2-0.1c-4-2.9-8.3-3.5-11.1-3.5
		c-1.1,0-1.8,0.1-2.2,0.1c-0.4,1.2-2.5,7.2-2.4,14c0,0.2-0.1,0.3-0.3,0.4c-0.2,0.1-0.4,0-0.5-0.1c-2.4-2.6-3.4-6.2-4.1-8.8
		c-0.1-0.4-0.2-0.7-0.3-1c-1.9,1.8-5.5,7.2-5.5,11.2c0,0.2-0.1,0.3-0.3,0.4C51.5,76.8,51.4,76.8,51.3,76.8z M47.4,58.9
		c1.3,0,2.2,0.5,3.5,1.2c0.1,0.1,0.2,0.1,0.2,0.3c0,0.1,0,0.2,0,0.3c-3.3,5.8-1.8,11.8-0.1,14.5c0.6-4.5,4.5-9.9,6.3-11.1
		c0.1-0.1,0.3-0.1,0.4-0.1c0.1,0,0.2,0.1,0.3,0.3c0.2,0.5,0.3,1.1,0.5,1.7c0.6,2.2,1.4,5.2,3.2,7.5c0.1-7.3,2.5-13.3,2.5-13.4
		c0.1-0.1,0.2-0.2,0.3-0.3c0,0,1-0.2,2.6-0.2c2.8,0,6.8,0.6,10.8,3.1c-0.8-3.3-4.8-7.1-6.7-7.5c-0.2,0-0.3-0.2-0.3-0.3
		c0-0.2,0-0.3,0.1-0.4c1.3-1.1,5.7-2.5,8.6-2.7c-2.5-2.2-6-2.7-8.7-2.7c-2.5,0-4.4,0.4-4.4,0.4c-0.2,0.1-0.4-0.1-0.5-0.3
		c0-0.1-0.5-2.3,0.8-4.9c-3.4,0.2-8.7,4.9-9.1,8.3c0,0.2-0.2,0.4-0.4,0.4c-8.9,0-11,3.9-11.5,6.1C46.4,59,46.9,58.9,47.4,58.9z"/>
	<path style="clip-path:url(#SVGID_00000163771272001016192190000009683672751423202456_);fill:#49A1FA;" d="M1.7,56.8
		c-0.1,0-0.1,0-0.2,0c-0.7-0.1-1.2-0.7-1.1-1.4c0-0.1,1.3-9.2,14.1-10c0.7,0,1.3,0.5,1.3,1.2c0,0.7-0.5,1.3-1.2,1.3
		C4,48.5,3,55.6,3,55.7C2.9,56.3,2.3,56.8,1.7,56.8z"/>
	<path style="clip-path:url(#SVGID_00000163771272001016192190000009683672751423202456_);fill:#49A1FA;" d="M3.3,80.9
		c0,0-0.1,0-0.1,0C2.5,80.9,2,80.3,2,79.6c0.2-2.8,2.4-8.3,8.9-9.6c0.7-0.1,1.4,0.3,1.5,1s-0.3,1.4-1,1.5c-6.3,1.3-6.9,7.1-6.9,7.4
		C4.5,80.4,4,80.9,3.3,80.9z"/>
	<path style="clip-path:url(#SVGID_00000163771272001016192190000009683672751423202456_);fill:#49A1FA;" d="M32.1,34.2
		c-0.2,0-0.4-0.1-0.6-0.2c-0.6-0.4-0.8-1.1-0.5-1.7c0.2-0.3,4.9-8,16.6-6.7c0.7,0.1,1.2,0.7,1.1,1.4c-0.1,0.7-0.7,1.2-1.4,1.1
		c-10.1-1.2-14.1,5.4-14.1,5.4C33,34,32.6,34.2,32.1,34.2z"/>
	<path style="clip-path:url(#SVGID_00000163771272001016192190000009683672751423202456_);fill:#49A1FA;" d="M25.8,56.1
		c-0.2,0-0.4,0-0.6-0.1c-0.6-0.3-0.9-1.1-0.6-1.7c0.2-0.4,4.5-9,16.4-8c0.7,0.1,1.2,0.7,1.2,1.4c-0.1,0.7-0.7,1.2-1.4,1.2
		c-10.1-0.9-13.8,6.5-13.9,6.5C26.7,55.8,26.2,56.1,25.8,56.1z"/>
	<path style="clip-path:url(#SVGID_00000163771272001016192190000009683672751423202456_);fill:#49A1FA;" d="M73.8,39
		c-0.3,0-0.7-0.1-0.9-0.4c-1.8-1.9-4.3-2.8-7.2-2.7c-3.6,0.1-6.7,1.7-7.4,2.6c-0.5,0.5-1.3,0.6-1.8,0.2c-0.5-0.5-0.6-1.3-0.2-1.8
		c1.3-1.6,5.2-3.4,9.2-3.5c3.7-0.1,6.8,1.1,9.1,3.5c0.5,0.5,0.5,1.3,0,1.8C74.4,38.9,74.1,39,73.8,39z"/>
</g>
</svg>
