<svg id="Capa_1" data-name="Capa 1" xmlns="http://www.w3.org/2000/svg" viewBox="0 0 388.32 388.32"><defs><style>.cls-1{fill:#222222;}</style></defs><path class="cls-1" d="M404.15,183.15,241.84,20.85a8.58,8.58,0,0,0-12.13,0L20.85,229.71a8.58,8.58,0,0,0,0,12.13l162.3,162.31a8.59,8.59,0,0,0,12.14,0L404.15,195.29A8.59,8.59,0,0,0,404.15,183.15Zm-329.36,77a1,1,0,0,1-1.35,0L54.86,241.55a.94.94,0,0,1,0-1.35l18.58-18.58a1,1,0,0,1,1.35,0L93.37,240.2a.94.94,0,0,1,0,1.35Zm40.47-40.47a1,1,0,0,1-1.35,0L95.32,201.08a1,1,0,0,1,0-1.34l18.59-18.59a1,1,0,0,1,1.35,0l18.58,18.58a1,1,0,0,1,0,1.35Zm40.46-40.47a1,1,0,0,1-1.35,0l-18.58-18.58a1,1,0,0,1,0-1.35l18.58-18.59a1,1,0,0,1,1.35,0l18.59,18.58a1,1,0,0,1,0,1.35ZM111.21,296.56a1,1,0,0,1-1.35,0L91.28,278a1,1,0,0,1,0-1.35L109.86,258a1,1,0,0,1,1.35,0l18.58,18.58a.94.94,0,0,1,0,1.35Zm40.47-40.47a1,1,0,0,1-1.35,0L131.74,237.5a1,1,0,0,1,0-1.35l18.59-18.58a1,1,0,0,1,1.35,0l18.58,18.58a1,1,0,0,1,0,1.35Zm40.46-40.47a1,1,0,0,1-1.35,0L172.21,197a1,1,0,0,1,0-1.35l18.58-18.59a1,1,0,0,1,1.35,0l18.59,18.59a1,1,0,0,1,0,1.35ZM147.63,333a1,1,0,0,1-1.35,0L127.7,314.39a1,1,0,0,1,0-1.35l18.59-18.58a.94.94,0,0,1,1.35,0L166.21,313a1,1,0,0,1,0,1.35Zm40.47-40.47a1,1,0,0,1-1.35,0l-18.59-18.59a1,1,0,0,1,0-1.35L186.75,254a1,1,0,0,1,1.35,0l18.58,18.58a1,1,0,0,1,0,1.35ZM228.56,252a1,1,0,0,1-1.35,0l-18.58-18.58a1,1,0,0,1,0-1.35l18.58-18.59a1,1,0,0,1,1.35,0l18.59,18.59a1,1,0,0,1,0,1.35ZM184.2,369.54a1,1,0,0,1-1.35,0L164.26,351a1,1,0,0,1,0-1.35L182.85,331a.94.94,0,0,1,1.35,0l18.58,18.58a1,1,0,0,1,0,1.35Zm41.06-39.86a1,1,0,0,1-1.34,0l-18.59-18.59a1,1,0,0,1,0-1.35l59-59.05a1,1,0,0,1,1.35,0l18.58,18.59a1,1,0,0,1,0,1.35Zm83.27-77.43a4.13,4.13,0,0,1-5.84,0L172.75,122.31a4.13,4.13,0,0,1,0-5.84l56.9-56.9a4.13,4.13,0,0,1,5.84,0L365.42,189.51a4.12,4.12,0,0,1,0,5.84l-56.89,56.9Z" transform="translate(-18.34 -18.34)"/><path class="cls-1" d="M335.69,178a15.24,15.24,0,0,0-23.08,1.75l-39.92-10.5A15.24,15.24,0,0,0,254.16,154l-15.31-35a13.17,13.17,0,0,0,1-.94,15.28,15.28,0,1,0-10.74,4.46l16.2,37.05a15.26,15.26,0,0,0,22.88,20.11c.26-.26.5-.53.74-.8l40.7,10.71a15.26,15.26,0,1,0,26-11.63Zm-110.1-67.19a5,5,0,1,1,7,0A5,5,0,0,1,225.59,110.76Zm28.34,61.62a5,5,0,1,1,7,0A4.95,4.95,0,0,1,253.93,172.38Zm67.46,19.88a5,5,0,1,1,7,0A5,5,0,0,1,321.39,192.26Z" transform="translate(-18.34 -18.34)"/></svg>