<?xml version="1.0" encoding="utf-8"?>
<!-- Generator: Adobe Illustrator 25.4.1, SVG Export Plug-In . SVG Version: 6.00 Build 0)  -->
<svg version="1.1" id="Layer_1" xmlns="http://www.w3.org/2000/svg" xmlns:xlink="http://www.w3.org/1999/xlink" x="0px" y="0px"
	 viewBox="0 0 24 24" style="enable-background:new 0 0 24 24;" xml:space="preserve">
<style type="text/css">
	.st0{fill:#FFFFFF;}
</style>
<path class="st0" d="M12,3c-5,0-9,4.1-9,9.3c0,4,2.6,7.5,6.2,8.7c0.4,0.1,0.6-0.3,0.6-0.4v-1.7c-2.5,0.5-2.9-1.1-2.9-1.1
	c-0.4-1-1.1-1.4-1.1-1.4c-0.9-0.5,0.1-0.5,0.1-0.5c0.9,0.1,1.4,0.9,1.4,0.9c0.9,1.4,2.1,1,2.7,0.8c0.1-0.6,0.3-1,0.6-1.3
	c-2.1-0.3-4.2-1-4.2-4.5c0-1,0.4-1.9,0.9-2.4c0-0.3-0.4-1.3,0.2-2.5c0,0,0.8-0.3,2.5,0.9c0.8-0.3,1.5-0.3,2.2-0.3s1.5,0.1,2.2,0.3
	c1.7-1.2,2.4-0.9,2.4-0.9c0.5,1.4,0.2,2.2,0.1,2.4c0.6,0.6,0.9,1.5,0.9,2.4c0,3.5-2.1,4.3-4.1,4.5c0.3,0.3,0.6,0.9,0.6,1.7v2.5
	c0,0.3,0.2,0.5,0.6,0.4c3.7-1.3,6.3-4.7,6.3-8.7C21,7.1,17,3,12,3z"/>
</svg>
