<?xml version="1.0" encoding="utf-8"?>
<!-- Generator: Adobe Illustrator 25.4.1, SVG Export Plug-In . SVG Version: 6.00 Build 0)  -->
<svg version="1.1" id="Layer_1" xmlns="http://www.w3.org/2000/svg" xmlns:xlink="http://www.w3.org/1999/xlink" x="0px" y="0px"
	 viewBox="0 0 250 250" style="enable-background:new 0 0 250 250;" xml:space="preserve">
<style type="text/css">
	.st0{fill:#FFFFFF;}
</style>
<path class="st0" d="M225.3,58.7c-3.3,1.5-6.7,2.7-10.2,3.7c4.1-4.7,7.2-10.2,9.2-16.1c0.4-1.3,0-2.8-1.1-3.7
	c-1.1-0.9-2.6-1-3.8-0.3c-7.4,4.4-15.4,7.5-23.7,9.4c-17.8-17.5-46.4-17.2-63.9,0.7c-8.3,8.4-12.9,19.8-12.9,31.6
	c0,1.9,0.1,3.9,0.4,5.8C88.2,87,59.6,71.9,39.9,47.7c-0.7-0.9-1.8-1.3-2.9-1.2c-1.1,0.1-2.1,0.7-2.7,1.7c-9.6,16.6-7.7,37.4,4.7,52
	c-2.1-0.7-4.1-1.6-6-2.7c-1-0.6-2.3-0.6-3.3,0c-1,0.6-1.7,1.7-1.7,2.9v0.6c0,16,8.4,30.7,22.1,38.9c-1.1-0.1-2.3-0.3-3.4-0.5
	c-1.2-0.2-2.4,0.2-3.2,1.1c-0.8,0.9-1.1,2.2-0.7,3.3c4.9,15.2,17.5,26.8,33.1,30.3c-12.8,8-27.6,12.2-42.7,12.2
	c-3.2,0-6.4-0.2-9.6-0.6c-1.6-0.2-3.1,0.7-3.6,2.2c-0.5,1.5,0.1,3.2,1.4,4c19.7,12.6,42.5,19.3,65.9,19.3c46,0,74.8-21.7,90.8-39.9
	c20-22.7,31.5-52.7,31.5-82.4c0-1.2,0-2.5-0.1-3.7c7.9-5.9,14.8-13.2,20.2-21.4c0.8-1.3,0.7-2.9-0.2-4.1
	C228.4,58.5,226.7,58.1,225.3,58.7z"/>
</svg>
