<?xml version="1.0" encoding="utf-8"?>
<!-- Generator: Adobe Illustrator 25.4.1, SVG Export Plug-In . SVG Version: 6.00 Build 0)  -->
<svg version="1.1" id="Layer_1" xmlns="http://www.w3.org/2000/svg" xmlns:xlink="http://www.w3.org/1999/xlink" x="0px" y="0px"
	 viewBox="0 0 496.2 496.2" style="enable-background:new 0 0 496.2 496.2;" xml:space="preserve">
<style type="text/css">
	.st0{fill:#334D5C;}
	.st1{fill:#E2A120;}
	.st2{fill:#EAB32A;}
	.st3{fill:#A8843B;}
	.st4{fill:#BC934B;}
</style>
<path class="st0" d="M248.1,33.1c-118.7,0-215,96.3-215,215c0,118.7,96.3,215,215,215c118.7,0,215-96.3,215-215
	C463.1,129.3,366.8,33.1,248.1,33.1z"/>
<ellipse transform="matrix(1 -1.187602e-03 1.187602e-03 1 -0.2944 0.2948)" class="st1" cx="248.1" cy="248.1" rx="100.5" ry="100.5"/>
<g>
	<path class="st2" d="M327.3,186.2c-23.2,0.1-49.7,4.9-81.9-7.3c-21.4-8.1-44.8-9.1-61.2-8.5c-5.6,4.6-10.7,9.8-15.2,15.6
		c19.9,1.2,45.8,4.7,62.1,15c17.7,11.2,76,7,107.7,3.8C335.6,198.1,331.8,191.9,327.3,186.2z"/>
	<path class="st2" d="M312.2,315c-26.1-1.4-55.5,9-93.9-3.5c-18.2-6-37.6-6.9-53-6.2c5.6,8.1,12.4,15.4,20.2,21.6
		c7.2,1.8,13.9,4.2,19.6,7.4c15.7,8.9,61.1,5.1,93.5,0.8c8.7-5.1,16.5-11.4,23.3-18.7C319.3,315.7,316.1,315.2,312.2,315z"/>
	<path class="st2" d="M348.6,245.2c-24.7-4.5-58.8-8.7-91.1-6c-42.6,3.6-77.3-3.8-108.2-9.8c-1.1,6-1.7,12.2-1.7,18.6
		c0,0.8,0,1.6,0,2.5c47.6,10.1,105.8,20.2,128.3,14.8c19.6-4.7,46.6-4.3,71.7-2.3c0.7-4.9,1.1-9.9,1.1-15
		C348.6,247.1,348.6,246.2,348.6,245.2z"/>
</g>
<path class="st3" d="M337.8,202.6c4.5,8.9,7.7,18.5,9.4,28.6c16.4,4.8,26.2,10.9,26.2,17.4c0,6.6-9.9,12.7-26.4,17.5
	c-6,1.8-12.9,3.3-20.6,4.7c-21.5,3.9-48.7,6.3-78.3,6.3c-29.6,0-56.9-2.3-78.3-6.3c-7.6-1.4-14.5-3-20.6-4.7
	c-16.6-4.8-26.4-10.9-26.4-17.5c0-6.6,9.8-12.6,26.2-17.4c1.7-10.1,4.9-19.7,9.4-28.6C99.8,211.4,60,228.5,60,248.1
	s39.8,36.7,98.4,45.4c26.7,4,57.2,6.2,89.7,6.2s63-2.3,89.7-6.2c58.6-8.8,98.4-25.8,98.4-45.4S396.4,211.4,337.8,202.6z"/>
<path class="st4" d="M342,209.9c0.9,2.4,1.7,4.8,2.5,7.3c29.2,7.2,47.5,17.7,47.5,29.3c0,15-32.1,26.4-76.9,33.1
	c-20.4,3-43.8,4.8-68.6,4.8s-48.2-1.7-68.6-4.8c-44.8-6.7-73.6-18.1-73.6-33.1c0-11.6,18.3-22.1,47.5-29.3c0.7-2.5,1.5-4.9,2.5-7.3
	c-41.3,8.1-78.4,21.3-78.4,36.3c0,16.9,44.6,34.6,95.1,42.1c23,3.4,49.3,5.4,77.3,5.4s54.3-2,77.3-5.4c50.5-7.5,95.1-25.2,95.1-42.1
	C420.5,231.2,383.3,218,342,209.9z"/>
<g>
	<path class="st2" d="M345.3,222.5c-20.1,2.1-110.9,9.2-186.6-20.7c-1,1.9-1.9,3.8-2.8,5.8c20.1,7.3,90,29.1,190.8,21.4
		C346.4,226.8,345.9,224.7,345.3,222.5z"/>
	<path class="st2" d="M305.8,165.8c-25.7-1-58.3-4.2-91.3-12.5c-2.8,1-5.5,2.1-8.2,3.3c26.4,6.9,62.9,13.7,107.4,15.4
		C311.2,169.8,308.6,167.7,305.8,165.8z"/>
</g>
</svg>
