<?xml version="1.0" encoding="utf-8"?>
<!-- Generator: Adobe Illustrator 25.4.1, SVG Export Plug-In . SVG Version: 6.00 Build 0)  -->
<svg version="1.1" id="Layer_1" xmlns="http://www.w3.org/2000/svg" xmlns:xlink="http://www.w3.org/1999/xlink" x="0px" y="0px"
	 viewBox="0 0 48 48" style="enable-background:new 0 0 48 48;" xml:space="preserve">
<style type="text/css">
	.st0{fill:#FFFFFF;}
</style>
<path class="st0" d="M41.4,7.3c0,0,3.9-1.5,3.6,2.2c-0.1,1.5-1.1,6.8-1.8,12.6l-2.6,17c0,0-0.2,2.5-2.2,2.9
	c-1.9,0.4-4.9-1.5-5.4-1.9c-0.4-0.3-8.1-5.2-10.8-7.6c-0.8-0.6-1.6-1.9,0.1-3.5l11.3-10.8c1.3-1.3,2.6-4.3-2.8-0.6L15.7,27.8
	c0,0-1.7,1.1-5,0.1l-7-2.2c0,0-2.6-1.6,1.8-3.2C16.4,17.4,29.7,12.2,41.4,7.3z"/>
</svg>
